<svg xmlns="http://www.w3.org/2000/svg" viewBox="0 0 1672 941"><path fill="currentColor" fill-rule="evenodd" d="M267 237.63c0 1.4-1.14 1.56-8.5 1.18-7.53-.4-8.5-.25-8.5 1.26 0 1.54-2.29 1.78-23.48 2.44-17.76.56-23.75 1.06-24.6 2.08-.71.86-.87 3.14-.44 6.29.58 4.16.4 5.09-1.14 5.95-2.69 1.5-1.21 2.28 5.5 2.89l5.99.54 5.47 11.62 5.48 11.62-3.6 1.08-3.6 1.08 4.63 1.36 4.62 1.37 7.48 15.74c4.12 8.65 7.24 16 6.92 16.3-.3.31-1.59.57-2.84.57-4.2 0-3.47 1.87 1 2.54l4.44.66 19.05 40.18a9140 9140 0 0 1 25.51 54.15l6.45 13.97-20.24.27-20.24.27-6.75-3.52c-6.07-3.16-7.56-3.52-14.68-3.52-8.68 0-9.4.68-6.8 6.38 1.82 4 .35 9-3.03 10.27-3.27 1.24-4.7 5.36-3.6 10.4.52 2.32 1.36 3.17 3.59 3.62 2.87.57 2.91.68 2.91 7.32 0 13.11 5.08 15.37 34.5 15.34 19.21-.01 75.98-1.78 95.75-2.98 10.54-.64 10.75-.6 10.75 1.5 0 1.87-.56 2.15-4.4 2.15-8.91 0-27.32 3.93-40.06 8.54l-12.77 4.63-8.46-1.56c-7.89-1.47-10.07-1.44-32.14.44-39.05 3.31-36.35 2.8-38.07 7.33-1.34 3.53-1.32 3.99.25 5.13 1.56 1.15 1.5 1.31-.75 1.88-2.02.5-2.65 1.56-3.56 5.92a59 59 0 0 0-1.16 8.25l-.22 12.4-.16 9.47 5-.27c2.75-.15 10.63-.92 17.5-1.7 16.24-1.87 25.33-1.8 12 .1-17.88 2.54-26.5 3.42-33.5 3.45-3.85.02-19.6 1.57-35 3.46l-28 3.42-17.28 6.52a609 609 0 0 1-21.25 7.72c-2.18.65-3.97 1.45-3.97 1.78 0 .82.39.84 39.5 1.61 32 .64 36.4.52 51.45-1.38 9.05-1.14 16.66-1.87 16.92-1.6.25.25-.3.46-1.22.46-1.33 0-1.56.6-1.07 2.75 2 8.87 2.67 10.5 4.49 10.98 2.19.57 2.55 1.9.68 2.52-.94.31-1 1.15-.23 3.33l1.02 2.92 11.98.76c6.59.41 20.75 1.43 31.48 2.25 14.4 1.11 21.07 1.23 25.5.47 3.3-.57 6.68-1.12 7.5-1.22 1.48-.18 11.45 2.51 15.65 4.23l2.15.88-2.34 6.45c-1.3 3.55-2.07 6.73-1.74 7.07 1.58 1.58 6.67.1 16.56-4.8l10.79-5.36 7.71.84c10.12 1.1 59.9 4.64 77.72 5.52 18.35.9 19.83 1.47 11.2 4.35-7.56 2.5-9.7 4.16-9.7 7.48 0 3.18 3.1 5.66 10.84 8.67 3.67 1.43 6.55 3.1 6.42 3.72s-.53 4.27-.89 8.1c-.63 6.78-.58 7 1.74 7.53C465.58 648.3 550.2 666 551.38 666c.69 0 6.32-7.55 12.53-16.78l11.29-16.78 11.4 1.95c11.16 1.92 13.41 2.85 9.4 3.9-2.56.67-3.53 3.25-2.27 6.03.9 1.95 3.68 2.7 25.89 6.97 13.68 2.63 26.16 4.77 27.73 4.75s6.78-2.02 11.58-4.45l8.73-4.41 28.42 2.85c163.8 16.4 290.65 13.98 348.13-6.66 9.85-3.54 18.79-8.12 18.79-9.64 0-3.34-24.78-14-48.19-20.72-31.45-9.04-76.82-16.26-116.81-18.59-8.79-.5-12.27-1.13-14.75-2.62-4.45-2.69-4.1-3.3.5-.9 3 1.57 7.29 2.18 21.33 3.05 44.45 2.75 89.67 10.63 121.2 21.13 8.13 2.7 17.13 6.11 20 7.57l5.22 2.65 41.5-.65c48.5-.76 80.07-2.82 87.7-5.73 2.83-1.07 4.66-7.34 6.8-23.33 2-14.74 3.03-16.88 9.23-19.16 4.71-1.73 8.07-3.97 7.21-4.82-.24-.24-8.32-.95-17.94-1.56-33-2.12-38.3-3.22-36.6-7.63.61-1.6 2.49-1.69 25.38-1.1 24.14.64 63.71 2.41 152.72 6.85 58.88 2.95 132.23 3.2 156 .54 21.4-2.39 36.7-5.05 53.26-9.25l13.74-3.48 25.75.66c17.33.45 25.75.34 25.75-.35 0-.6-6.6-1.5-16.25-2.2-35.5-2.6-35.86-2.65-47.53-7.65-24.95-10.69-63.5-24.18-95.22-33.33-17.53-5.05-53.3-14.08-55.86-14.1-.75 0-3-1.79-5-3.97-3.31-3.6-4.48-4.13-12.93-5.9-8.52-1.79-9.61-1.82-13.18-.42-3.5 1.38-4.59 1.37-10.89-.05-5.55-1.25-8.71-2.8-15.32-7.49-49.1-34.84-76.16-48.02-111.55-54.34-11-1.97-16.23-2.29-37.77-2.31-25.59-.03-32.63.55-61.26 5.03-17.78 2.78-24.68 4.27-80.24 17.38l-41.5 9.8-25.5 2.18c-14.02 1.2-28.21 2.44-31.53 2.75l-6.02.57-2.79-5.12c-2.11-3.88-3.34-5.12-5.1-5.12-3.18 0-4.54 1.97-4.37 6.36.07 2.04-.27 4.11-.78 4.6-1.12 1.09-39.4 4.53-72.91 6.54-35.63 2.15-97.52 3.37-128.5 2.55-25.23-.68-27.07-.86-38.42-3.81-6.56-1.71-12.28-3.7-12.7-4.42-.43-.73-3.85-6.26-7.6-12.3-6.42-10.33-7.06-11.03-10.64-11.61-2.7-.44-3.96-.24-4.32.7-.4 1.05 2.4 10.91 5.46 19.2.82 2.23 2.24 2.53-82.78-17.3a17753 17753 0 0 0-46.33-10.74l-13.83-3.17-39.67-38.55C413 335.45 368.55 291.85 368.21 291c-.16-.4 3.77-1.04 8.74-1.43 8.69-.68 12.01-1.85 8.31-2.93-.97-.28-6.8-.82-12.95-1.2l-11.2-.68-21.96-21.37L317.18 242h-21.14c-17 0-21.72-.3-24.09-1.53-1.62-.84-2.95-2.19-2.95-3 0-.8-.45-1.47-1-1.47s-1 .73-1 1.63m880 191.85c-11.24 1.11-23.78 2.83-29.66 4.06-2.04.43-1.72 1.35 5.9 16.7 4.43 8.95 8.1 16.32 8.16 16.4.48.64 72.41 10.75 87.6 12.3 28 2.88 71.76 5.2 91.41 4.86l16.92-.3-11.92-8.08c-45.35-30.78-72.66-42.23-110.62-46.36-12.6-1.37-41.9-1.16-57.79.42m-58 9.14c-12.22 2.5-47.97 10.69-54.25 12.43-2.06.57-3.75 1.4-3.75 1.85s4.61 1.12 10.25 1.5c14.38.97 39.9 3.38 55.12 5.2 7.08.86 13.23 1.18 13.67.73.76-.79-7.2-21.99-8.79-23.39-.41-.37-5.92.39-12.25 1.68M862.5 536.6c-14.6 1.25-187.85 5.92-255.5 6.9q-64.75.92-65.86 2.03c-.24.24 23.86.14 53.55-.21 40.52-.48 54.17-.35 54.71.52 1.14 1.84 37.43 1.5 192.1-1.82 52.73-1.12 70.5-1.86 70.5-2.9 0-1.49-41.13-5.24-49.5-4.52m-592.23 2.1a6 6 0 0 0 3-.04c.68-.28-.12-.49-1.77-.46-1.65.01-2.2.24-1.23.5m560.73.88c-38.88 1.56-144.7 4.42-163.51 4.42-9.09 0-13.6.37-14.1 1.16-.53.88 6.58 1 29.2.52 16.45-.36 67.26-1.33 112.91-2.17s88.17-1.84 94.5-2.21l11.5-.69-9.5-1.22c-11.64-1.5-19.58-1.47-61 .2m-500.25.07c.69.28 1.81.28 2.5 0 .69-.27.13-.5-1.25-.5s-1.94.23-1.25.5m22 .06c1.79.23 4.71.23 6.5 0 1.79-.22.32-.4-3.25-.4s-5.04.18-3.25.4m40.75.25c8.25.42 17.81.83 21.25.9s6.25.58 6.25 1.13c0 .6-4.26 1-10.75 1.01-12.5.01-26.89 1.52-66.25 6.95a3797 3797 0 0 1-54 6.99c-32.1 3.85-46.14 5.78-43.23 5.93 2.55.13 45.91-5.07 86.23-10.36 37.42-4.9 69.17-8.32 78.38-8.45 6.44-.1 13.25-.77 22.12-2.2 3.92-.62-13.77-1.83-32.5-2.22-18.83-.38-20.06-.33-7.5.32m-101.75.77c2.89.2 7.61.2 10.5 0s.52-.37-5.25-.37-8.14.16-5.25.37m-19 1c2.34.2 6.16.2 8.5 0 2.34-.22.43-.4-4.25-.4s-6.59.18-4.25.4m-14.98.99c1.8.22 4.5.21 6-.01 1.5-.23.03-.42-3.27-.41-3.3 0-4.53.2-2.73.42m259.82.19c.5.47 3.16 1.12 5.91 1.45 3.05.37 4.22.28 3-.23-2.96-1.25-9.97-2.2-8.91-1.22m-16.84 1.74c.69.28 1.81.28 2.5 0 .69-.27.13-.5-1.25-.5s-1.94.23-1.25.5m-4.75 1.4c0 .58.45.78 1 .44s1-.82 1-1.06-.45-.44-1-.44-1 .48-1 1.06m33.81-.38c.72.3 1.59.26 1.92-.08.33-.33-.26-.56-1.31-.52-1.17.05-1.4.28-.6.6m-10.57 4.04c-1.79.23-3.25.88-3.25 1.45 0 .62.7.73 1.75.27.96-.42 7.6-1.07 14.75-1.43l13-.67H534c-6.33-.01-12.96.16-14.75.38m175.25 2.83c1.65.78 15.38 5.88 30.5 11.33 43.04 15.52 38.33 13.23 41.43 20.14l2.68 5.98 8.7-.2 8.69-.2-8.21-.34-8.21-.34-2.64-5.88c-3.03-6.75 2.04-4.28-41.44-20.24-29.4-10.79-39.8-14.18-31.5-10.25M238.76 563.7c1.25.24 3.05.23 4-.02s-.06-.45-2.26-.44-2.98.22-1.74.46m-8.5.98a5.7 5.7 0 0 0 3-.03c.69-.28-.11-.49-1.76-.46-1.65.01-2.2.24-1.23.5M554.5 578c1 1.1 2.03 2 2.31 2s-.31-.9-1.31-2-2.03-2-2.31-2 .31.9 1.31 2m91.31 9.68c.72.3 1.59.26 1.92-.08.33-.33-.26-.56-1.31-.52-1.17.05-1.4.28-.6.6m118 1c.71.3 1.58.26 1.9-.08.34-.33-.25-.56-1.3-.52-1.17.05-1.4.28-.6.6m44.43 2a8 8 0 0 0 3.5 0c.96-.24.17-.45-1.75-.45s-2.71.2-1.75.46m6.75-.32c0 .2 4.74 1.63 10.54 3.16 6.68 1.78 10.07 3.1 9.25 3.62-1 .64-.95.82.21.82.83 0 2.12-.4 2.87-.87 1.56-.98-.41-1.71-13.6-5.03-8.65-2.18-9.27-2.3-9.27-1.7m-153.73 4.32a5.7 5.7 0 0 0 3-.03c.68-.28-.12-.49-1.77-.46-1.65.01-2.2.24-1.23.5m167.54 3.98c.72.3 1.59.26 1.92-.08.33-.33-.26-.56-1.31-.52-1.17.05-1.4.28-.6.6m-6 1c.71.3 1.58.26 1.9-.08.34-.33-.25-.56-1.3-.52-1.17.05-1.4.28-.6.6"/></svg>