<svg xmlns="http://www.w3.org/2000/svg" viewBox="0 0 1916 821"><path fill="currentColor" fill-rule="evenodd" d="m1097.99 100.7-.01 5.8-3.99 1.68c-4.35 1.82-5.3 4.5-1.78 5 2.7.39 4.06 5.26 3.24 11.52-.4 3.03-1.12 4.38-2.56 4.83-2.52.8-1.93 2.87.94 3.29 2.57.38 3.2 5.18.67 5.18-1.96 0-1.92 1.66.06 2.78 1.16.65 1.48 2.13 1.25 5.8-.25 3.98-.74 5.1-2.56 5.9-2.67 1.18-3.04 4.51-.5 4.53 4.07.04 4.67 1.73 6.7 18.74.57 4.82.45 5.25-1.42 5.25-2.76 0-2.56 1.44.38 2.78 2.1.95 2.5 2 3.08 7.9l.84 8.32c.1.96-.86 1.62-2.7 1.83-2.66.3-2.83.57-2.31 3.75.53 3.24.4 3.42-2.38 3.42-2.47 0-2.94.4-2.94 2.5 0 2.39.27 2.5 6 2.5h6v3.44c0 1.9-.41 3.7-.92 4.01-.51.32-1.22 1.92-1.58 3.56-.9 4.12-3.34 3.92-3.15-.26.13-2.84-.17-3.25-2.35-3.25-2 0-2.6.6-3 3-.84 5.03-2.16 6.3-7 6.69-3.64.3-4.56.76-4.8 2.44-.27 1.86.36 2.14 5.98 2.73 5.4.57 6.61 1.08 8.63 3.65a36 36 0 0 0 6.54 5.88l4.2 2.89 1.23 9.36a138 138 0 0 1 1.19 15.36c-.06 5.9-.09 5.95-1.43 3l-1.38-3-.08 2.64c-.04 1.46-.75 2.9-1.58 3.22-1.9.73-1.96 4.25-.1 4.96.77.3 1.7 2.49 2.06 4.86s1.61 7.6 2.76 11.61l2.1 7.3-2.22 9.7c-1.22 5.34-6 22.98-10.6 39.21a1714 1714 0 0 0-11.6 42.5c-1.76 7.15-3.63 13.56-4.17 14.25s-2.91 1.25-5.28 1.25h-4.3l-1.04 5.25c-.57 2.89-1.57 8.13-2.23 11.66l-1.2 6.41 3.33 2.98 3.34 2.99-1.68 8.1c-3.14 15.08-3.37 15.61-6.86 15.61-1.76 0-3.67-.75-4.45-1.75-1.3-1.67-1.42-1.67-2.72 0-.78 1-2.7 1.75-4.5 1.75-2.93 0-3.14-.24-3.14-3.57 0-3.3-.2-3.54-2.75-3.25-2.3.27-2.8.86-3.06 3.57-.3 3.13-.48 3.25-4.75 3.25-4.42 0-4.44-.01-4.44-3.56 0-3.42-.13-3.55-3.25-3.25-2.05.2-3.27.86-3.3 1.81-.17 4.23-1.48 5-8.54 5-6.3 0-6.91-.19-7.38-2.25-1.63-7.14-6.54-39.27-6.16-40.26.24-.65 5.55-2.65 11.79-4.45s11.64-3.56 12.01-3.91c1.22-1.14-.42-6.38-2.13-6.83-1.51-.4-1.7-2.99-1.9-25.57-.11-13.82-.42-25.34-.67-25.6-.26-.25-.47 5.35-.47 12.45s-.3 18.66-.66 25.67c-.58 11.5-.83 12.75-2.5 12.75-1.77 0-2.37-1.81-2.03-6.15.16-2.03-2.34-4.26-3.77-3.38-.57.36-1.04 1.43-1.04 2.39s-.56 2.95-1.25 4.43c-1.14 2.46-1.75 2.7-6.87 2.7-5.5.01-5.64-.06-6.25-3.12-.35-1.71-.63-4.6-.63-6.41 0-6.65.53-6.46-18.55-6.46-10.48 0-17.58.4-17.95 1-.34.55-2.17 1-4.06 1-1.9 0-3.44-.45-3.44-1 0-1.25-34.65-1.38-35.42-.13-.3.49-.84 4.08-1.2 8-.55 5.9-.97 7.13-2.44 7.13-1.28 0-1.95 1.1-2.44 4l-.68 4h-14.29l-14.1-14.06c-12.6-12.6-14.22-13.9-15.45-12.42-1.7 2.05-1.9 1.78 10.64 15.17 8.2 8.76 9.92 11.12 9.09 12.42-2.09 3.28-.15 4.88 6 4.99 3.19.05 8.26.4 11.29.75 6.63.78 6.68-3.24-.5 35.15a2360 2360 0 0 0-6.44 35.5c-2.13 13.4-1.62 12.5-6.94 12.5-2.6 0-5.21-.5-5.81-1.1-.8-.78-1.68-.77-3.22.05-1.2.64-5.27 1-9.36.84l-7.23-.29-.57-4.27c-.31-2.35-1.1-4.8-1.75-5.45a5 5 0 0 1-1.18-3.05c0-1.44.48-1.71 2.1-1.2 1.92.61 2.04.4 1.4-2.54a59 59 0 0 0-3.06-8.53c-1.94-4.38-2.85-5.37-5.15-5.64-2.02-.23-2.79-.87-2.79-2.32 0-1.47-.67-2-2.5-2-2.18 0-2.54.5-2.82 3.88-.17 2.13.23 5.2.9 6.82 1.13 2.72 1 3.14-1.93 5.81-1.73 1.58-3.15 3.55-3.15 4.38 0 2.57 2.06 2.9 4.4.7 1.24-1.16 2.55-1.8 2.92-1.43 1.2 1.19.73 4.38-.72 4.94-.77.3-1.9 2.53-2.51 4.97-1.01 4-1.4 4.43-4.1 4.43-2.32 0-2.99-.45-2.99-2 0-2.73-1.76-2.54-2.3.25-.3 1.63-.47 1.35-.56-1-.09-2 .34-3.26 1.11-3.26q1.25-.02-.25-.99c-.83-.53-3.36-.98-5.62-.99-4.04-.01-4.14.07-4.76 3.99-.38 2.36-1.2 4-1.98 4-1.35 0-2.62-10.25-2.63-21.25-.01-5.12-.2-5.25-7.26-4.78-2.63.17-2.75-.02-2.75-4.46 0-4.63 0-4.64-3.25-4.32-3.07.3-3.25.53-3.25 4.31v4l-4.5.3-4.5.28-3.79-28.07c-2.08-15.45-3.56-28.44-3.3-28.87s4.78-2.1 10.03-3.71l9.54-2.93v-3.75L816 410h-9.78l-.68-11.25c-.97-16.03-5.4-81.13-6.44-94.56-.49-6.21-1.15-11.58-1.49-11.91-.93-.93-.96-1.39 4.9 87.22 1.69 25.62 1.8 30.8.65 30.1-.47-.29-1.13-7.18-1.47-15.31-.84-19.71-5.67-97.9-6.3-102.14-1.33-8.67-1.3-.23.05 22.96.82 13.96 2.17 38.21 3 53.89s1.73 31.31 2 34.75l.48 6.25h-8.72l-.67-6.25a80 80 0 0 0-1.15-7.95c-.44-1.55-3.23-1.7-32.4-1.71-22.1 0-32.12.33-32.59 1.09-.37.6-.9 4.18-1.17 7.96-.41 5.79-.77 6.86-2.31 6.86-1.57 0-1.86 1.01-2.12 7.25l-.29 7.25-7.37-.14q-7.4-.15-8.33-1.5c-.74-1.06-1.06-1.08-1.46-.11-.63 1.56-12.34 1.75-12.34.2 0-.57-.9-2.9-2-5.19-2.47-5.11-2.5-6.92-.18-9.79 2.33-2.87 1.44-10.16-1.62-13.21-1.81-1.81-2.32-1.91-3.75-.71-1.44 1.19-1.86 1.11-3.1-.59a15 15 0 0 1-2-4.21c-.31-1.24-.97-2.25-1.46-2.25-1.28 0-1.14.6 1.2 5.17l2.08 4.1-5.08 5.14c-5.3 5.36-6.1 7.5-3.62 9.56 1.18.99 1.99.81 4.15-.89 1.48-1.16 2.87-1.92 3.1-1.7.66.66-.87 7.62-1.67 7.62-.4 0-1.32 1.8-2.05 4l-1.32 4h-8.84c-8.5 0-8.84-.09-8.86-2.25-.01-2.46-1.57-5.5-2.39-4.68a24 24 0 0 0-2.01 3.98c-.85 1.95-1.52 2.68-1.54 1.68-.02-.98-1.16-2.2-2.54-2.73-1.37-.52-2.5-1.64-2.5-2.48 0-.83-.45-1.52-1-1.52s-1 1.8-1 4-.45 4-1 4-1 1.24-1 2.75-.97 7.14-2.16 12.5c-2.02 9.07-2.4 9.88-5.55 11.74a13.4 13.4 0 0 0-4.85 5.5c-1.46 3.5-1.48 3.51-7.95 3.51-5.88 0-6.49-.2-6.49-2.05 0-1.13-.7-3.41-1.56-5.07-1.6-3.09-1.26-7.6.82-10.93 1.33-2.12.07-10.43-1.8-11.99a4.4 4.4 0 0 0-3.5-.66c-1.64.43-2.41-.22-3.73-3.13-2.1-4.6-2.11-4.62-2.8-3.93-.31.31.39 2.52 1.56 4.91l2.13 4.35-5.56 5.02c-5.96 5.39-6.3 6.1-4.2 8.96 1.32 1.8 1.46 1.79 4.4-.31 1.68-1.2 3.28-2.17 3.56-2.17.65 0-1.1 6.55-2.8 10.5a73 73 0 0 0-1.88 4.75c-.51 1.56-2.13 1.75-14.6 1.75H569v-3.5c0-2.5-.44-3.5-1.56-3.5-.86 0-1.3.42-.98.93.31.51.12 1.21-.44 1.56-.6.37-1.02-.48-1.02-2.01 0-4.2-2.45-2.38-2.82 2.08-.18 2.15-.84 4.23-1.46 4.61-.84.52-.83 1.3.03 3.01.64 1.28 1.3 3.43 1.46 4.8.24 2.02 1.18 2.7 5.29 3.85 2.75.77 5.06 1.46 5.14 1.53s-.6 4.19-1.52 9.14l-1.66 9-34.23.26c-33.73.26-34.23.24-34.23-1.75 0-1.31-.66-2.01-1.9-2.01-1.42 0-1.78.52-1.39 2 .48 1.82.03 2-4.96 2h-5.49l-.62 3.75a53 53 0 0 0-.63 7L486 506h-5.51c-3.04 0-6.47-.56-7.63-1.25-1.7-1-2.21-1-2.57 0-.65 1.78-30.33 1.78-32.22 0-1.06-1-1.41-1-1.78 0-.3.8-2.53 1.25-6.26 1.25h-5.8l-.68-4.5c-.37-2.48-1.13-4.5-1.7-4.5-.64 0-.78-1.48-.36-3.93.82-4.87-1.04-6.2-7.55-5.37-5.74.74-7.18 1.92-6.44 5.3q.6 2.68-.96 3.96c-.9.76-1.54 2.89-1.54 5.17v3.9l-8.42-.27c-4.63-.14-8.67 0-8.97.3s-1.24 3.9-2.08 8c-2.51 12.27-2.33 11.8-4.51 11.23-2.12-.55-2.47.02-3.43 5.56-.48 2.77-.24 3.43 1.42 3.86 1.1.29 1.99.84 1.99 1.22 0 1.56-2.13 12.67-2.7 14.07-.75 1.86-.95 2.88-1.15 5.82-.12 1.8-.65 2.25-2.4 2-1.87-.27-2.2-.85-1.94-3.47.3-2.95.08-3.2-3.5-3.76-2.1-.34-5.61-.4-7.81-.16s-7.4.48-11.55.51l-7.55.06.41 3.5.4 3.5H328.1l.45-3.5.45-3.5-9.75.2-9.74.2 8.25.34c11.24.46 10.55 2.26-.86 2.26-7.68 0-9.01-.23-8.53-1.5.33-.87.02-1.5-.75-1.5-.9 0-1.24 1.12-1.05 3.5l.27 3.5h-23.66l.27-3.5c.22-2.7-.1-3.5-1.38-3.5-1.3 0-1.57.74-1.25 3.5l.4 3.5h-13.54c-7.45 0-13.82-.43-14.14-.95s1.53-1.12 4.2-1.33l4.77-.4-5-.07c-8.19-.13-8.5-.2-8.5-1.68 0-.8 1.22-1.62 2.75-1.85 1.76-.27 1.09-.47-1.86-.57l-4.61-.15.28 3.5.27 3.5H217.3l-.08-2.97-.09-2.97 12.69-.31c6.97-.17 3.46-.33-7.82-.34-11.28 0-17.43.14-13.68.33 4.76.25 6.69.72 6.4 1.56-.3.86-3.62 1.12-11.76.93-11.65-.28-13.48-.66-10.93-2.27 1.9-1.2-9.2-1.19-26.53.02-7.15.5-22.5 1.45-34.12 2.1-20.88 1.16-21.15 1.15-23.21-.92-1.16-1.15-1.67-2.35-1.13-2.68.53-.33.96-1.47.96-2.54 0-2.86-3.83-2.52-4.95.43-.71 1.88-1.45 2.28-3.48 1.89-1.41-.27-2.57-1.15-2.57-1.95 0-1.9-4.05-1.34-4.99.69-2.05 4.44-2.87 5.53-4.37 5.82-1.3.26-1.64-.5-1.64-3.75 0-2.24-.45-4.07-1-4.07s-1 1.8-1 4v4l-4.25.13c-2.34.07-9.42.41-15.75.75l-11.5.62.33 3c.29 2.6 20.12 53.19 26.75 68.25l2.31 5.25H1754.5l3.97-7.75c10.5-20.52 24.97-38.61 52.4-65.5 18-17.65 19.34-18.75 22.9-18.75 3.06 0 4.67-.82 8.5-4.33 3.02-2.78 4.94-5.5 5.36-7.56.44-2.22 2.32-4.68 6-7.85 5.02-4.34 10.37-10.87 10.37-12.67 0-.44-3.94-.52-8.75-.17-46.8 3.4-109.42 7.56-219.75 14.61-25.85 1.65-55.55 3.62-66 4.36s-19.06 1.3-19.13 1.24c-.06-.07-.43-1.14-.81-2.38-.52-1.67-.3-2.25.87-2.25 2.14 0 1.98-1.57-.93-9-2.91-7.44-3.08-9-.93-9 .87 0 2.18-.6 2.92-1.34 1.26-1.26 18.42-3.95 43.01-6.75 5.5-.62 10.43-1.53 10.95-2.02 1.39-1.3-1.21-1.16-28.9 1.61-16.61 1.66-25.29 2.16-25.95 1.5-.55-.55-2.5-1-4.35-1a7.2 7.2 0 0 1-5.55-2.38c-1.9-2.06-4.28-2.67-17.84-4.65-8.6-1.25-16.27-2.03-17.06-1.73-1.48.58-3.82 16.54-3.8 26.07 0 4.77.03 4.82 4.75 6.88 5.86 2.55 5.88 2.58 4.43 4.03a5.5 5.5 0 0 0-1.18 3.38c0 2.12-.47 2.22-12.75 2.83-7.01.35-13.98.83-15.5 1.08-2.35.38-3.01-.1-4.7-3.4-1.12-2.2-2.94-4.12-4.25-4.47-1.27-.34-13.66-.62-27.55-.63L1420 525v-3.07c0-1.68-.48-3.96-1.07-5.06-.92-1.72-.38-2.62 4-6.6 8.06-7.3 5.87-7.02-3 .4-6.3 5.28-7.94 7.19-7.53 8.75 1.05 4.02-1.99 5.58-10.86 5.58-4.47 0-8.6.46-9.17 1.03-.64.64-6.85.92-16.44.75l-15.42-.28-.9-4.28c-.73-3.46-.6-4.52.66-5.5.86-.67 2.55-3.35 3.75-5.96 1.84-3.97 2.01-5.24 1.08-7.9-.6-1.74-1.1-4.48-1.1-6.1 0-3.38-2.31-3.37-2.81.01-.2 1.37-.82 1.92-1.75 1.57-1.06-.4-1.44.26-1.44 2.55 0 2.63-.38 3.11-2.43 3.11-1.46 0-2.64-.7-2.94-1.75-2.16-7.5-5.69-29.36-5.89-36.5-.18-6.6-.58-8.75-1.6-8.75s-1.2.9-.7 3.58c.42 2.22.23 4.1-.5 4.99-.72.87-.91 2.76-.5 4.97l.67 3.57-5.07-.3c-5.01-.3-7.02-2.01-3.08-2.63 2.72-.43 2.58-1.56-.92-7.76-2.52-4.46-2.72-5.33-1.38-5.84 2.45-.94-.37-3.8-2.95-2.99-1.93.61-1.99.3-1.48-7.86.3-4.67.25-8.94-.1-9.48-1.32-2.05-5.2-2.43-7.75-.76-2.41 1.58-2.5 2.01-2.2 9.96.23 6-.05 8.65-1.02 9.55-1.3 1.21-1.2 3.96.34 10 .35 1.38.17 3.74-.4 5.25-.82 2.14-1.7 2.75-4 2.75s-3.03-.5-3.28-2.25c-.3-2.12-.84-2.27-9.56-2.54-9.12-.28-9.25-.25-9 2 .2 1.91-.3 2.34-3.01 2.6-1.79.18-3.25-.1-3.25-.61 0-.5-1.4-8.3-3.1-17.31-2.02-10.74-2.88-17.87-2.5-20.7.4-2.94.11-5-.9-6.54-.8-1.24-2.22-6.13-3.14-10.86l-1.68-8.62 2.76-7.78c2.41-6.79 2.62-8.25 1.64-11.52-.96-3.2-1.6-3.8-4.31-4.06-3.18-.3-3.19-.32-2.9-5.56.17-3.25-.13-5.25-.8-5.25-.61 0-1.07 2.06-1.07 4.83 0 5.48-.36 6.15-2.97 5.47-1.6-.42-1.71-.9-.83-3.44.8-2.32.7-3.32-.5-4.66-1.13-1.25-1.5-3.7-1.4-9.2.12-5.85-.15-7.5-1.25-7.5-1.06 0-1.48 1.82-1.67 7.33-.15 4.03-.77 7.94-1.38 8.68-.67.8-.85 2.76-.45 4.91l.67 3.58h-12.1l-.31-3.75c-.25-2.98-.72-3.75-2.31-3.75s-2.06.77-2.31 3.75c-.28 3.4-.58 3.75-3.2 3.75-2.67 0-2.9-.3-3.18-4.25-.22-2.97-.76-4.25-1.81-4.25s-1.6 1.28-1.8 4.25c-.26 3.44-.69 4.25-2.26 4.25-1.07 0-1.98-.56-2.02-1.25s-.15-5.52-.25-10.75c-.13-7.25-.64-10.45-2.17-13.5-1.87-3.73-2.32-4.02-6.75-4.3-4.5-.3-4.75-.46-4.75-3.19 0-4.97-1.68-8.01-4.42-8.01-2.28 0-2.5.41-2.78 5.25-.28 4.9-.48 5.27-3.05 5.57-2.34.27-2.75-.05-2.75-2.15 0-1.41-.74-2.75-1.75-3.14-1.5-.59-1.37-.88.99-2.13 8.4-4.44 6.62-18.05-2.88-22.02-4.31-1.8-6.8-1.74-11.08.29-4.57 2.17-7.27 6.7-7.28 12.18 0 3.64.57 4.92 3.5 7.85 4.08 4.08 4.15 4.3 1.5 4.3-1.3 0-2 .67-2 1.9 0 1.16-.93 2.12-2.42 2.5-3.25.8-5.58-.21-5.58-2.45 0-1-.45-2.11-1-2.45s-1 .13-1 1.05c0 .91-1.37 3.4-3.05 5.51-3.74 4.73-6.6 13.21-7.46 22.19-.36 3.71-1.05 6.75-1.54 6.75-.5 0-1.6-1.35-2.45-3s-2.07-3-2.7-3-.11-1.1 1.16-2.45c1.93-2.06 2.23-3.24 1.84-7.25-.86-8.93-3.33-12.24-10.87-14.6-1.06-.34-2-2.83-2.85-7.66-.7-3.94-1.13-7.3-.93-7.45s3.82-2.55 8.05-5.32c5.9-3.85 8.99-5.19 13.15-5.7 3.56-.45 6.08-1.4 7.29-2.72 1.76-1.95 1.76-2.08.04-3.34-.98-.72-1.42-1.5-.98-1.75.44-.24.13-.23-.7.02l-3.12.92c-1.13.32-1.77-.33-2.12-2.19-.4-2.12-.03-2.84 1.87-3.56 1.94-.74 2.37-1.61 2.37-4.87 0-2.18-.35-4.18-.77-4.44s-3.24-.18-6.25.2c-5.36.65-5.5.75-6.43 4.52-.8 3.22-.67 4.08.76 5.13 1.28.93 1.5 1.84.87 3.55-.78 2.1-1.58 2.34-8.98 2.7-7.82.37-8.15.3-8.66-1.93-1.3-5.71-2.5-11.36-2.52-11.9 0-.33 2.22-2.13 4.97-4s5.17-3.88 5.4-4.47c.22-.58-.44-2.84-1.46-5-3.24-6.85-2.42-9.81 3.46-12.53 2.26-1.05 6.81-3.47 10.11-5.4 3.93-2.28 7.3-3.49 9.75-3.5l3.75-.01v-6.5c0-7.04-1.57-9.11-1.83-2.41-.2 5.29-.67 5.91-4.34 5.91h-3.04l3.23-3.02c2.85-2.66 3.16-3.46 2.64-6.75-.75-4.67-3.79-7.23-8.6-7.23-5.09 0-8.06 3.23-8.06 8.77 0 2.9.62 4.73 2.05 6.06 1.74 1.63 1.82 2 .52 2.5-.92.36-1.29 1.24-.92 2.2.54 1.4-.3 1.58-6.63 1.32q-7.27-.3-7.76-1.62c-.4-1.03-.92-.94-2.38.38-1.29 1.16-1.88 1.3-1.88.44q0-1.27-2.48-.65c-2.75.7-2.45 1.38-5.02-11.21-2.33-11.35-3.45-9.93 12-15.18 8.34-2.83 9.92-4.29 5.25-4.83-2.17-.25-2.75-.83-2.75-2.78 0-1.35.67-2.72 1.5-3.04 1.99-.76 2.02-7.22.04-7.98-1.01-.4-1.28-1.44-.87-3.45q1.06-5.3-5.98-3.27c-2.16.63-3.2 1.55-3.23 2.88-.05 2.68-1.38 4.63-2.63 3.85-.57-.35-1.71-2.27-2.55-4.26-.83-2-2.39-4.87-3.46-6.38-2.15-3.03-1.78-3.42 3.67-3.96 3.65-.35 4.82-3.63 1.6-4.48-2.11-.55-2.94-2.31-1.09-2.31.55 0 1-1.1 1-2.44 0-2.21-.46-2.48-4.74-2.75-3.82-.25-4.81-.7-5.1-2.31a8.4 8.4 0 0 0-2.27-3.79c-2.44-2.3-2.74-12.17-.39-13.07 2.05-.79 1.9-5.32-.22-6.5a4 4 0 0 1-1.75-3.2 4.3 4.3 0 0 0-1.7-3.27c-2.37-1.5-4.99.85-4.25 3.8q.57 2.27-1 2.86c-.87.33-1.58 1.3-1.58 2.14s-.42 1.53-.93 1.53c-1.35 0-5.38-21.35-4.25-22.49.28-.28 1.34-.51 2.35-.51 1.16 0 1.83-.73 1.83-2 0-1.1-.45-2-1-2s-1-.9-1-2c0-1.56-.67-2-3-2-2.82 0-3-.23-3-3.9 0-2.53.52-4.09 1.5-4.46.83-.32 1.5-1.04 1.5-1.6 0-.58-.67-1.04-1.5-1.04-.93 0-1.5-.94-1.5-2.5 0-1.87.53-2.5 2.08-2.5 1.82 0 2-.4 1.38-3.25-.86-4.03-1.37-4.92-2.42-4.27-1.41.87-2.02-2.32-1.37-7.1.34-2.5 1.23-4.74 1.98-4.97l2.83-.87c2.04-.64.93-3.03-2.04-4.38-2.15-.99-2.44-1.76-2.44-6.58 0-3-.45-5.74-1-6.08-.62-.39-1 1.58-1.01 5.2m29.22 137.15c-1.34.85-.67 9.15.74 9.15.39 0 1.77-1.14 3.08-2.53 1.3-1.4 2.88-2.34 3.5-2.1.65.25 1.02-.46.88-1.72l-.33-2.9c-.1-1-6.25-.93-7.87.1m-27.21.62c0 .25.9.94 2 1.53 1.6.85 2 .76 2-.47 0-.86-.87-1.53-2-1.53-1.1 0-2 .2-2 .47m34.4 47.11c.33.87.6 2.5.6 3.61 0 1.7.43 1.92 2.75 1.36 1.51-.37 4.1-2 5.73-3.61l2.98-2.94h-6.34c-5.36 0-6.24.24-5.73 1.58m4.8 9.46c-2.52 2.34-2.83 3.96-.76 3.96 1.84 0 4.57-2.73 4.57-4.57 0-1.99-1.24-1.79-3.81.6m3.18 36.22c.33 1.24.6 2.81.62 3.5.02 1.94 1.18 1.46 5.51-2.27l4-3.45-5.37-.01c-5.08-.02-5.33.1-4.76 2.23m-262.6 69.25c2.76 3.98 17.23 18.23 17.23 16.95 0-.54-4.34-5.26-9.65-10.47-5.3-5.21-8.71-8.13-7.57-6.48M652 415a1 1 0 0 0 1 1 1 1 0 0 0 1-1 1 1 0 0 0-1-1 1 1 0 0 0-1 1m-87 43c0 .55.48 1 1.06 1s.78-.45.44-1-.82-1-1.06-1-.44.45-.44 1m732.7 12.68c-2.99.8-1.28 2.82 2.38 2.82 2.37 0 3.42-.46 3.42-1.5 0-1.56-2.67-2.16-5.8-1.32m8.55.04c-1.97.7-1.46 2.28.75 2.28 1.1 0 2-.42 2-.94 0-1.28-1.24-1.88-2.75-1.34m53.83 30.86c.05 1.17.28 1.4.6.6.3-.71.26-1.58-.08-1.9-.33-.34-.56.25-.52 1.3m-522.45.19c.63.4 1.36 1.63 1.64 2.73.38 1.53.52 1.36.61-.75.09-2-.36-2.75-1.63-2.74-1.11.01-1.34.29-.62.75m-6.17 12.49c-.26.69-.13 6.65.28 13.25l.76 12 7.66.29 7.66.3.53-2.8c.3-1.53.8-6.16 1.13-10.29l.6-7.5-6.29-3.28c-6.47-3.37-11.5-4.17-12.33-1.97m582.59 7.66c-1.45 2.72-1.34 3.09.95 3.09q1.98-.02 2-1.94c0-2.78-1.72-3.46-2.95-1.15M195.27 551.69a5.7 5.7 0 0 0 3-.03c.68-.28-.12-.49-1.77-.46-1.65.01-2.2.24-1.23.5m63.98.03c2.06.21 5.44.21 7.5 0 2.06-.22.38-.4-3.75-.4s-5.81.18-3.75.4m28.52 0c1.8.22 4.5.21 6-.01 1.5-.23.03-.42-3.27-.41-3.3 0-4.53.2-2.73.42m43.98-.02c1.24.23 3.26.23 4.5 0s.23-.44-2.25-.44-3.49.2-2.25.44m-153.86.72c-.36.34-17.63 1.44-24.14 1.53q-2.74.05-2.75 1.62c0 1.18.69 1.45 2.75 1.05 3.08-.6 20.8-2 23.48-1.85 1.96.1 3.25-1.36 1.93-2.18-.49-.3-1.06-.38-1.27-.17m3.11.57c0 .55.48 1 1.06 1s.78-.45.44-1-.82-1-1.06-1-.44.45-.44 1m7 0c0 .55.48 1 1.06 1s.78-.45.44-1-.82-1-1.06-1-.44.45-.44 1m156.93-.75c-.04.14-.23 1.49-.43 3l-.36 2.75H359v-6h-7c-3.85 0-7.03.11-7.07.25M361 555c0 2.93.11 3 5 3s5-.07 5-3-.11-3-5-3-5 .07-5 3m-233.75.72c-11.36.58-8.75 2.35 3 2.05 5.99-.16 10.25-.69 10.25-1.27 0-1.13-2.87-1.3-13.25-.78M142 556c0 .55 1.8 1 4 1s4-.45 4-1-1.8-1-4-1-4 .45-4 1m77.75-.34c.69.28 1.81.28 2.5 0 .69-.27.13-.5-1.25-.5s-1.94.23-1.25.5m22.06.02c.72.3 1.59.26 1.92-.08.33-.33-.26-.56-1.31-.52-1.17.05-1.4.28-.6.6m66.85-.01c-1.8 1.8.07 2.33 8.33 2.33 7.33 0 9-.28 9-1.5 0-1.21-1.6-1.5-8.33-1.5-4.59 0-8.64.3-9 .67m-227.1 1.28c-1.07.39-1.52.95-1 1.25.51.3 1.8.23 2.86-.15 1.07-.39 1.52-.95 1-1.25-.51-.3-1.8-.23-2.86.15m28.93.05c-.34.55.11 1 1 1s1.34-.45 1-1-.79-1-1-1-.66.45-1 1m4 0c-.34.55.3 1 1.44 1 1.13 0 2.06-.45 2.06-1s-.65-1-1.44-1c-.8 0-1.72.45-2.06 1m55.25-.27c-4.31.45-5.12 2.27-1 2.26 4.56-.02 10.25-1.2 10.25-2.12 0-.86-2.05-.9-9.25-.14M181 557a1 1 0 0 0 1 1 1 1 0 0 0 1-1 1 1 0 0 0-1-1 1 1 0 0 0-1 1m4 0a1 1 0 0 0 1 1 1 1 0 0 0 1-1 1 1 0 0 0-1-1 1 1 0 0 0-1 1m3 0c0 .55.7 1 1.56 1s1.28-.45.94-1-1.04-1-1.56-1-.94.45-.94 1m4 0c0 .59 3.52 1 8.56 1 5.45 0 8.33-.36 7.94-1-.34-.55-4.2-1-8.56-1-4.63 0-7.94.42-7.94 1m57 0c0 .55.42 1 .94 1s1.22-.45 1.56-1-.08-1-.94-1-1.56.45-1.56 1m-184.7.63c1.08 1.08 6.7 1.38 6.7.35 0-.54-1.65-.98-3.67-.98-2.01 0-3.38.28-3.04.63m9.41.47c.8.8 1.63.8 2.95.03 1.62-.94 1.49-1.07-1.1-1.1-2.15-.02-2.65.27-1.85 1.07m82.8-.1-6 .66 6.75.17c3.94.1 6.75-.25 6.75-.83 0-.55-.34-.92-.75-.83s-3.45.47-6.75.83m-31.75 1.74c-2.61.2-4.75.85-4.75 1.43 0 .62.95.8 2.25.46 1.24-.33 3.94-.6 6-.62 2.06 0 3.75-.46 3.75-1.01s-.56-.92-1.25-.82-3.39.35-6 .56m9.25.26c0 .55 1.1 1 2.44 1s2.72-.45 3.06-1c.36-.58-.66-1-2.44-1-1.68 0-3.06.45-3.06 1m10.25-.31a8 8 0 0 0 3.5 0c.96-.25.18-.46-1.75-.46s-2.71.2-1.75.46M82 561.5c0 .83.45 1.5 1 1.5s1-.67 1-1.5-.45-1.5-1-1.5-1 .67-1 1.5m29-.5a1 1 0 0 0 1 1 1 1 0 0 0 1-1 1 1 0 0 0-1-1 1 1 0 0 0-1 1m4 0c0 .55.42 1 .94 1s1.22-.45 1.56-1-.08-1-.94-1-1.56.45-1.56 1"/></svg>